# xmcd CD database file
# Copyright (C) 1993-1998 Ti Kan
#
# Track frame offsets:
#	150
#	18710
#	34965
#	49935
#	71747
#	95677
#	114945
#	131310
#	154697
#	170772
#
# Disc length: 2458 seconds
#
# Revision: 0
# Processed by: cddbd v1.4b41PL1 Copyright (c) Steve Scherf et al.
# Submitted via: CDmax 1.5
#
DISCID=8809980a
DTITLE=Greta Lee - This Ain't Over Yet
DYEAR=1900
DGENRE=
TTITLE0=I Hate The Cold
TTITLE1=Not In A Million Years
TTITLE2=Somebody New
TTITLE3=Silly Me
TTITLE4=The Cryin's Over And Done
TTITLE5=Run Away
TTITLE6=You Just Don't Want Me
TTITLE7=This Ain't Over Yet
TTITLE8=He Ain't Comin' Here
TTITLE9=The Way I Am
EXTD=
EXTT0=
EXTT1=
EXTT2=
EXTT3=
EXTT4=
EXTT5=
EXTT6=
EXTT7=
EXTT8=
EXTT9=
PLAYORDER=
